<svg width="24" height="24" viewBox="0 0 24 24" fill="none" xmlns="http://www.w3.org/2000/svg">
<path d="M17.4405 9.32932H16.3405V6.39933C16.3405 5.24829 15.8833 4.14439 15.0694 3.33048C14.2555 2.51657 13.1516 2.05933 12.0005 2.05933C10.8495 2.05933 9.74561 2.51657 8.9317 3.33048C8.11779 4.14439 7.66055 5.24829 7.66055 6.39933V9.32932H6.56055C5.89751 9.32932 5.26162 9.59272 4.79278 10.0616C4.32394 10.5304 4.06055 11.1663 4.06055 11.8293V19.4393C4.06239 20.1018 4.32638 20.7366 4.79482 21.205C5.26326 21.6735 5.89807 21.9375 6.56055 21.9393H17.4405C18.103 21.9375 18.7378 21.6735 19.2063 21.205C19.6747 20.7366 19.9387 20.1018 19.9405 19.4393V11.8293C19.9405 11.1663 19.6772 10.5304 19.2083 10.0616C18.7395 9.59272 18.1036 9.32932 17.4405 9.32932ZM8.66055 6.39933C8.66055 5.5135 9.01244 4.66396 9.63881 4.03759C10.2652 3.41122 11.1147 3.05933 12.0005 3.05933C12.8864 3.05933 13.7359 3.41122 14.3623 4.03759C14.9887 4.66396 15.3405 5.5135 15.3405 6.39933V9.32932H8.66055V6.39933ZM18.9405 19.4393C18.9379 19.8363 18.779 20.2163 18.4983 20.4971C18.2176 20.7778 17.8376 20.9367 17.4405 20.9393H6.56055C6.16353 20.9367 5.78352 20.7778 5.50278 20.4971C5.22204 20.2163 5.06317 19.8363 5.06055 19.4393V11.8293C5.06055 11.4315 5.21858 11.05 5.49989 10.7687C5.78119 10.4874 6.16272 10.3293 6.56055 10.3293H17.4405C17.8384 10.3293 18.2199 10.4874 18.5012 10.7687C18.7825 11.05 18.9405 11.4315 18.9405 11.8293V19.4393Z" fill="#4B5563"/>
<path d="M13 14.9497C13.001 15.1246 12.9552 15.2966 12.8672 15.4479C12.7793 15.5991 12.6525 15.724 12.5 15.8097V17.3097C12.5 17.4423 12.4473 17.5695 12.3536 17.6633C12.2598 17.757 12.1326 17.8097 12 17.8097C11.8674 17.8097 11.7402 17.757 11.6465 17.6633C11.5527 17.5695 11.5 17.4423 11.5 17.3097V15.8097C11.3475 15.724 11.2207 15.5991 11.1328 15.4479C11.0449 15.2966 10.999 15.1246 11 14.9497C11 14.6845 11.1054 14.4301 11.2929 14.2426C11.4804 14.0551 11.7348 13.9497 12 13.9497C12.2652 13.9497 12.5196 14.0551 12.7071 14.2426C12.8947 14.4301 13 14.6845 13 14.9497Z" fill="#4B5563"/>
</svg>
