<svg width="22" height="22" viewBox="0 0 22 22" fill="none" xmlns="http://www.w3.org/2000/svg">
<path d="M4.86125 12.005C5.04625 11.835 5.13825 11.75 5.25025 11.75C5.36225 11.75 5.45425 11.835 5.63925 12.005L6.35225 12.662C6.43825 12.741 6.48125 12.781 6.53425 12.8C6.58825 12.82 6.64625 12.818 6.76425 12.813L7.72625 12.775C7.97425 12.765 8.09825 12.761 8.18325 12.832C8.26825 12.903 8.28525 13.026 8.31825 13.272L8.45025 14.258C8.46625 14.372 8.47325 14.428 8.50125 14.478C8.52925 14.526 8.57425 14.561 8.66425 14.632L9.44025 15.242C9.63225 15.394 9.72825 15.469 9.74725 15.577C9.76625 15.685 9.70125 15.789 9.57225 15.997L9.04725 16.844C8.98725 16.941 8.95725 16.99 8.94725 17.044C8.93725 17.098 8.94925 17.155 8.97325 17.267L9.18125 18.245C9.23325 18.485 9.25825 18.605 9.20325 18.701C9.14825 18.797 9.03125 18.835 8.79825 18.911L7.87225 19.212C7.76225 19.248 7.70725 19.266 7.66325 19.302C7.62025 19.339 7.59325 19.391 7.54025 19.494L7.08825 20.365C6.97325 20.588 6.91525 20.699 6.81025 20.737C6.70525 20.775 6.59025 20.727 6.35825 20.631L5.47025 20.263C5.36125 20.218 5.30725 20.195 5.25025 20.195C5.19325 20.195 5.13925 20.218 5.03025 20.263L4.14225 20.631C3.91025 20.727 3.79525 20.775 3.69025 20.737C3.58525 20.699 3.52725 20.587 3.41225 20.365L2.96025 19.494C2.90625 19.391 2.88025 19.339 2.83725 19.303C2.79425 19.267 2.73825 19.248 2.62825 19.213L1.70225 18.911C1.46925 18.835 1.35225 18.797 1.29725 18.701C1.24225 18.605 1.26725 18.486 1.31925 18.245L1.52725 17.267C1.55125 17.155 1.56325 17.099 1.55325 17.045C1.53275 16.9727 1.49883 16.9048 1.45325 16.845L0.927254 15.997C0.799254 15.789 0.734254 15.685 0.753254 15.577C0.772254 15.469 0.868254 15.394 1.06025 15.243L1.83625 14.633C1.92625 14.561 1.97125 14.526 1.99925 14.477C2.02725 14.428 2.03425 14.372 2.04925 14.257L2.18225 13.272C2.21525 13.027 2.23225 12.903 2.31725 12.832C2.40225 12.761 2.52625 12.765 2.77425 12.775L3.73725 12.813C3.85425 12.818 3.91225 12.82 3.96625 12.8C4.01925 12.78 4.06225 12.741 4.14825 12.662L4.86125 12.005Z" stroke="#4B5563" stroke-width="1.5"/>
<path d="M5.25 7.75H4.25M9.25 7.75H8.25M5.25 4.75H4.25M9.25 4.75H8.25M17.25 13.75H16.25M17.25 9.75H16.25" stroke="#4B5563" stroke-width="1.5" stroke-linecap="round"/>
<path d="M12.75 6.75V20.75H16.75C18.636 20.75 19.578 20.75 20.164 20.164C20.75 19.578 20.75 18.636 20.75 16.75V10.75C20.75 8.864 20.75 7.922 20.164 7.336C19.578 6.75 18.636 6.75 16.75 6.75H12.75ZM12.75 6.75C12.75 3.922 12.75 2.507 11.871 1.629C10.993 0.75 9.578 0.75 6.75 0.75C3.922 0.75 2.507 0.75 1.629 1.629C0.75 2.507 0.75 3.922 0.75 6.75V9.75" stroke="#4B5563" stroke-width="1.5" stroke-linecap="round" stroke-linejoin="round"/>
</svg>
