<svg width="52" height="52" viewBox="0 0 52 52" fill="none" xmlns="http://www.w3.org/2000/svg">
<path d="M45.4974 36.8337V17.3337H15.1641V36.8337H45.4974ZM45.4974 6.50033C46.6467 6.50033 47.7489 6.95687 48.5615 7.76953C49.3742 8.58219 49.8307 9.68439 49.8307 10.8337V36.8337C49.8307 37.9829 49.3742 39.0851 48.5615 39.8978C47.7489 40.7104 46.6467 41.167 45.4974 41.167H15.1641C14.0148 41.167 12.9126 40.7104 12.0999 39.8978C11.2873 39.0851 10.8307 37.9829 10.8307 36.8337V10.8337C10.8307 9.68439 11.2873 8.58219 12.0999 7.76953C12.9126 6.95687 14.0148 6.50033 15.1641 6.50033H17.3307V2.16699H21.6641V6.50033H38.9974V2.16699H43.3307V6.50033H45.4974ZM37.9791 23.9637L28.3591 33.5837L22.5524 27.777L24.8491 25.4803L28.3591 28.9903L35.6824 21.667L37.9791 23.9637ZM6.4974 45.5003H36.8307V49.8337H6.4974C5.34812 49.8337 4.24592 49.3771 3.43327 48.5645C2.62061 47.7518 2.16406 46.6496 2.16406 45.5003V19.5003H6.4974V45.5003Z" fill="white"/>
</svg>
