<svg width="36" height="35" viewBox="0 0 36 35" fill="none" xmlns="http://www.w3.org/2000/svg">
<mask id="mask0_1407_647" style="mask-type:luminance" maskUnits="userSpaceOnUse" x="0" y="0" width="36" height="35">
<path d="M8.38202 0.265391L0.138011 11.2791C-0.0460069 11.525 -0.0460074 11.8269 0.138032 12.0728C5.79272 19.6271 11.4486 27.1805 17.1034 34.7346C17.2403 34.9175 17.4052 35 17.6336 35C17.8619 35 18.0269 34.9175 18.1637 34.7346C23.818 27.1807 29.4723 19.6267 35.1266 12.0728C35.3107 11.8269 35.3107 11.525 35.1266 11.2791L26.8826 0.265391C26.7458 0.0825649 26.5808 0 26.3525 0H8.91219C8.68379 0 8.51888 0.0825649 8.38202 0.265391Z" fill="white"/>
</mask>
<g mask="url(#mask0_1407_647)">
<path d="M35.3176 0H-0.0390625V35H35.3176V0Z" fill="url(#paint0_linear_1407_647)"/>
</g>
<path d="M25.4298 16.7056H9.82422V17.8937H25.4298V16.7056Z" fill="white"/>
<path fill-rule="evenodd" clip-rule="evenodd" d="M9.82427 16.2801H25.4298V8.67188C25.4298 8.58397 25.3797 8.50892 25.2985 8.47528C25.2173 8.44164 25.1287 8.45927 25.0666 8.52143L21.3867 12.2013C21.3383 12.2496 21.2762 12.2707 21.2084 12.2618C21.1406 12.2529 21.0861 12.2164 21.0519 12.1572L20.4375 11.093L17.8113 6.54438C17.7722 6.4767 17.7051 6.43799 17.627 6.43799C17.5489 6.43799 17.4818 6.4767 17.4427 6.54438L14.8165 11.093L14.2021 12.1572C14.168 12.2164 14.1134 12.2529 14.0456 12.2618C13.9778 12.2707 13.9157 12.2496 13.8674 12.2013L10.1875 8.52143C10.1253 8.45927 10.0368 8.44167 9.95558 8.47528C9.87438 8.50892 9.82422 8.58399 9.82422 8.67188V16.2801H9.82427Z" fill="white"/>
<defs>
<linearGradient id="paint0_linear_1407_647" x1="17.6403" y1="43.0311" x2="17.6385" y2="-1.25842" gradientUnits="userSpaceOnUse">
<stop stop-color="#DF7C09"/>
<stop offset="1" stop-color="#F1C40F"/>
</linearGradient>
</defs>
</svg>
