<svg width="36" height="35" viewBox="0 0 36 35" fill="none" xmlns="http://www.w3.org/2000/svg">
<mask id="mask0_1407_625" style="mask-type:luminance" maskUnits="userSpaceOnUse" x="0" y="0" width="36" height="35">
<path d="M8.38202 0.265391L0.138011 11.2791C-0.0460069 11.525 -0.0460074 11.8269 0.138032 12.0728C5.79272 19.6271 11.4486 27.1805 17.1034 34.7346C17.2403 34.9175 17.4052 35 17.6336 35C17.8619 35 18.0269 34.9175 18.1637 34.7346C23.818 27.1807 29.4723 19.6267 35.1266 12.0728C35.3107 11.8269 35.3107 11.525 35.1266 11.2791L26.8826 0.265391C26.7458 0.0825649 26.5808 0 26.3525 0H8.91219C8.68379 0 8.51888 0.0825649 8.38202 0.265391Z" fill="white"/>
</mask>
<g mask="url(#mask0_1407_625)">
<path d="M35.3098 0H-0.046875V35H35.3098V0Z" fill="url(#paint0_linear_1407_625)"/>
</g>
<path d="M25.4337 16.7056H9.82812V17.8937H25.4337V16.7056Z" fill="white"/>
<path fill-rule="evenodd" clip-rule="evenodd" d="M9.82817 16.2801H25.4337V8.67188C25.4337 8.58397 25.3836 8.50893 25.3024 8.47529C25.2212 8.44165 25.1326 8.45927 25.0705 8.52143L21.3906 12.2013C21.3422 12.2496 21.2801 12.2707 21.2123 12.2618C21.1445 12.2529 21.09 12.2164 21.0558 12.1572L20.4414 11.093L17.8152 6.54438C17.7761 6.4767 17.709 6.43799 17.6309 6.43799C17.5528 6.43799 17.4857 6.4767 17.4466 6.54438L14.8204 11.093L14.2061 12.1572C14.1719 12.2164 14.1173 12.2529 14.0495 12.2618C13.9818 12.2707 13.9196 12.2496 13.8713 12.2013L10.1914 8.52143C10.1292 8.45927 10.0407 8.44167 9.95949 8.47529C9.87829 8.50893 9.82812 8.58399 9.82812 8.67188V16.2801H9.82817Z" fill="white"/>
<defs>
<linearGradient id="paint0_linear_1407_625" x1="17.6325" y1="43.0311" x2="17.6307" y2="-1.25842" gradientUnits="userSpaceOnUse">
<stop stop-color="#793200"/>
<stop offset="1" stop-color="#897056"/>
</linearGradient>
</defs>
</svg>
