<svg width="33" height="33" viewBox="0 0 33 33" fill="none" xmlns="http://www.w3.org/2000/svg">
<path fill-rule="evenodd" clip-rule="evenodd" d="M26.4016 11.8768C26.9641 11.9231 27.3836 12.4147 27.3386 12.9772C27.3304 13.0699 26.5922 22.2102 26.1673 26.0442C25.9031 28.4235 24.3313 29.8713 21.9588 29.9149C20.1432 29.9463 18.3917 29.964 16.6797 29.964C14.8342 29.964 13.035 29.9435 11.2549 29.9068C8.97765 29.8618 7.40183 28.3854 7.14442 26.0537C6.71539 22.1856 5.98128 13.0685 5.97447 12.9772C5.92816 12.4147 6.34765 11.9217 6.91016 11.8768C7.46448 11.8618 7.9657 12.2513 8.01064 12.8124C8.01499 12.8716 8.3151 16.5947 8.64214 20.2785L8.70783 21.0136C8.87255 22.8446 9.03952 24.604 9.17514 25.829C9.32087 27.1542 10.0359 27.8379 11.2971 27.8638C14.7021 27.936 18.1765 27.94 21.922 27.8719C23.2622 27.8461 23.9868 27.176 24.1366 25.8194C24.5588 22.014 25.2943 12.9051 25.3024 12.8124C25.3474 12.2513 25.8445 11.8591 26.4016 11.8768ZM19.5382 2.72461C20.7885 2.72461 21.8877 3.56768 22.2105 4.77576L22.5564 6.49323C22.6682 7.05624 23.1623 7.4674 23.7344 7.47643L28.204 7.47658C28.7679 7.47658 29.2255 7.93421 29.2255 8.49808C29.2255 9.06194 28.7679 9.51957 28.204 9.51957L23.7743 9.51936C23.7674 9.5195 23.7605 9.51957 23.7536 9.51957L23.7204 9.5182L9.59057 9.5194C9.57959 9.51951 9.56859 9.51957 9.55759 9.51957L9.53661 9.5182L5.10743 9.51957C4.54357 9.51957 4.08594 9.06194 4.08594 8.49808C4.08594 7.93421 4.54357 7.47658 5.10743 7.47658L9.57611 7.47522L9.7137 7.46651C10.2262 7.40002 10.6521 7.01079 10.7561 6.49323L11.0871 4.83705C11.4235 3.56768 12.5226 2.72461 13.7729 2.72461H19.5382ZM19.5382 4.76759H13.7729C13.4461 4.76759 13.1587 4.98687 13.0756 5.30149L12.7583 6.89502C12.7179 7.09686 12.6592 7.29137 12.584 7.47695H20.7275C20.6523 7.29137 20.5934 7.09686 20.5529 6.89502L20.222 5.23884C20.1525 4.98687 19.8651 4.76759 19.5382 4.76759Z" fill="#B80020"/>
</svg>
