<svg width="33" height="33" viewBox="0 0 33 33" fill="none" xmlns="http://www.w3.org/2000/svg">
<path fill-rule="evenodd" clip-rule="evenodd" d="M15.6545 2.77419C16.2184 2.77419 16.676 3.23181 16.676 3.79568C16.676 4.35954 16.2184 4.81717 15.6545 4.81717H10.5621C7.0427 4.81717 4.76954 7.22789 4.76954 10.9584V22.2819C4.76954 26.0124 7.0427 28.4231 10.5621 28.4231H22.5803C26.0996 28.4231 28.3742 26.0124 28.3742 22.2819V16.7958C28.3742 16.232 28.8318 15.7744 29.3956 15.7744C29.9595 15.7744 30.4171 16.232 30.4171 16.7958V22.2819C30.4171 27.1769 27.2669 30.4661 22.5803 30.4661H10.5621C5.87548 30.4661 2.72656 27.1769 2.72656 22.2819V10.9584C2.72656 6.06339 5.87548 2.77419 10.5621 2.77419H15.6545ZM27.5169 3.97083L29.1745 5.62837C29.9821 6.43466 30.4261 7.50655 30.4248 8.64789C30.4248 9.78924 29.9808 10.8598 29.1745 11.6647L18.9473 21.8919C18.1968 22.6423 17.1971 23.0564 16.1348 23.0564H11.0328C10.7577 23.0564 10.4934 22.9447 10.3014 22.7472C10.1094 22.5511 10.0045 22.2855 10.0113 22.009L10.1393 16.862C10.1652 15.8378 10.5779 14.8749 11.3025 14.149H11.3038L21.4819 3.97083C23.1463 2.3092 25.8526 2.3092 27.5169 3.97083ZM20.6435 7.69723L12.7475 15.594C12.3948 15.9468 12.1946 16.4153 12.1823 16.9124L12.0801 21.0134H16.1348C16.6523 21.0134 17.1372 20.8132 17.5036 20.4468L25.4472 12.501L20.6435 7.69723ZM22.9257 5.4159L22.0872 6.25216L26.8909 11.0573L27.7307 10.2196C28.1502 9.80014 28.3818 9.24172 28.3818 8.64789C28.3818 8.05271 28.1502 7.49293 27.7307 7.07344L26.0732 5.4159C25.2056 4.55104 23.7946 4.55104 22.9257 5.4159Z" fill="#3754DB"/>
</svg>
