<svg width="141" height="54" viewBox="0 0 141 54" fill="none" xmlns="http://www.w3.org/2000/svg">
<path d="M28.1103 52.4011H27.1289V46.5127H28.1103V52.4011Z" fill="#141F26"/>
<path d="M29.1758 52.4012V48.0884H30.0844V48.6749C30.2645 48.4296 30.4485 48.2571 30.6402 48.1574C30.8319 48.0616 31.0466 48.0117 31.2881 48.0117C31.936 48.0117 32.3769 48.2456 32.6069 48.7133C32.695 48.882 32.7487 49.0545 32.7679 49.2308C32.7871 49.4072 32.7985 49.6218 32.7985 49.8787V52.4012H31.8823V49.8787C31.8823 49.6525 31.867 49.4685 31.8325 49.3228C31.798 49.1771 31.7443 49.066 31.6676 48.9816C31.545 48.8436 31.3494 48.7746 31.0811 48.7746C30.7667 48.7746 30.5329 48.8666 30.3795 49.0506C30.276 49.1695 30.2032 49.3267 30.1572 49.5222C30.1112 49.7177 30.0882 49.986 30.0882 50.3234V52.3974H29.1758V52.4012Z" fill="#141F26"/>
<path d="M35.0233 52.4012C34.6898 52.4012 34.4368 52.3245 34.2681 52.1712C34.0994 52.0178 34.0151 51.761 34.0151 51.4083V48.8474H33.3672V48.0922H34.0151V46.5166H34.9236V48.0922H35.8015V48.8474H34.9236V51.1553C34.9236 51.3201 34.9505 51.4428 35.0003 51.5233C35.0501 51.6038 35.1652 51.6422 35.3415 51.6422H35.7977V52.405H35.0233V52.4012Z" fill="#141F26"/>
<path d="M36.7348 51.7768C36.6696 51.6388 36.6198 51.4816 36.593 51.3091C36.5661 51.1366 36.5508 50.9027 36.5508 50.6114V48.0889H37.4593V50.6191C37.4593 51.0523 37.5322 51.3513 37.6817 51.5123C37.8044 51.6503 37.9999 51.7193 38.2682 51.7193C38.5596 51.7193 38.7934 51.6273 38.9621 51.4433C39.0695 51.3244 39.1461 51.1673 39.1921 50.9679C39.2381 50.7686 39.2611 50.504 39.2611 50.1705V48.0889H40.1697V52.4017H39.2611V51.8152C39.081 52.0528 38.897 52.2215 38.7091 52.3289C38.5213 52.4324 38.3027 52.486 38.0497 52.486C37.4057 52.4899 36.9686 52.2522 36.7348 51.7768Z" fill="#141F26"/>
<path d="M41.2077 47.3755C41.0927 47.272 41.0352 47.1378 41.0352 46.9768C41.0352 46.8158 41.0927 46.6854 41.2077 46.5781C41.3227 46.4746 41.4645 46.4209 41.6294 46.4209C41.798 46.4209 41.9399 46.4746 42.0549 46.5781C42.1661 46.6854 42.2236 46.8158 42.2236 46.9768C42.2236 47.1378 42.1661 47.2681 42.0549 47.3755C41.9399 47.4828 41.8019 47.5326 41.6294 47.5326C41.4645 47.5365 41.3265 47.4828 41.2077 47.3755ZM42.0856 52.4013H41.1732V48.0885H42.0817V52.4013H42.0856Z" fill="#141F26"/>
<path d="M44.4296 52.4012C44.096 52.4012 43.843 52.3245 43.6743 52.1712C43.5057 52.0178 43.4213 51.761 43.4213 51.4083V48.8474H42.7734V48.0922H43.4213V46.5166H44.3299V48.0922H45.2078V48.8474H44.3299V51.1553C44.3299 51.3201 44.3567 51.4428 44.4066 51.5233C44.4564 51.6038 44.5714 51.6422 44.7478 51.6422H45.2039V52.405H44.4296V52.4012Z" fill="#141F26"/>
<path d="M46.0124 47.3755C45.8973 47.272 45.8398 47.1378 45.8398 46.9768C45.8398 46.8158 45.8973 46.6854 46.0124 46.5781C46.1274 46.4746 46.2692 46.4209 46.4341 46.4209C46.6027 46.4209 46.7446 46.4746 46.8596 46.5781C46.9708 46.6854 47.0283 46.8158 47.0283 46.9768C47.0283 47.1378 46.9708 47.2681 46.8596 47.3755C46.7446 47.4828 46.6066 47.5326 46.4341 47.5326C46.2692 47.5365 46.1274 47.4828 46.0124 47.3755ZM46.8903 52.4013H45.9817V48.0885H46.8903V52.4013Z" fill="#141F26"/>
<path d="M49.8191 52.4017H49.0792L47.4883 48.0889H48.4774L49.4434 50.9679L50.4402 48.0889H51.4216L49.8191 52.4017Z" fill="#141F26"/>
<path d="M52.7891 52.198C52.4633 52.0064 52.2103 51.7418 52.0301 51.4045C51.8499 51.0671 51.7617 50.6876 51.7617 50.2659C51.7617 49.8749 51.8422 49.5068 52.0032 49.1618C52.1643 48.8168 52.4058 48.5408 52.7278 48.3299C53.0498 48.1191 53.437 48.0117 53.8894 48.0117C54.2689 48.0117 54.6254 48.0922 54.9513 48.2532C55.2771 48.4143 55.5417 48.6596 55.7372 48.9893C55.9365 49.319 56.0324 49.7215 56.0324 50.2007V50.4307H52.6856C52.7163 50.6301 52.7661 50.7911 52.8313 50.9099C52.9348 51.1515 53.0805 51.3431 53.276 51.4811C53.4677 51.6192 53.69 51.6882 53.9354 51.6882C54.1961 51.6882 54.4223 51.6192 54.6101 51.485C54.7979 51.347 54.9321 51.1783 55.0165 50.9713H55.9595C55.8215 51.4198 55.58 51.784 55.235 52.0639C54.89 52.3437 54.4491 52.4856 53.9162 52.4856C53.4907 52.4894 53.115 52.3897 52.7891 52.198ZM55.0855 49.7177C55.0663 49.5567 55.0203 49.4225 54.9475 49.3075C54.844 49.1273 54.7021 48.9893 54.5219 48.8935C54.3417 48.7976 54.1424 48.7516 53.92 48.7516C53.6939 48.7516 53.4945 48.7976 53.3182 48.8935C53.1418 48.9893 53 49.1273 52.8926 49.3075C52.8275 49.411 52.7738 49.5452 52.7393 49.7177H55.0855Z" fill="#141F26"/>
<path d="M58.9961 52.4011V46.5127H61.4266C62.0017 46.5127 62.4579 46.6545 62.7875 46.9421C63.1211 47.2257 63.2859 47.6589 63.2859 48.234C63.2859 48.786 63.1172 49.2154 62.776 49.5297C62.4349 49.8441 61.9863 50.0013 61.4266 50.0013H59.9775V52.4011H58.9961ZM61.2963 49.1464C61.6298 49.1464 61.8866 49.0697 62.0592 48.9202C62.2355 48.7669 62.3198 48.5522 62.3198 48.2685C62.3198 47.9848 62.2317 47.7701 62.0553 47.6206C61.879 47.4711 61.626 47.3983 61.2963 47.3983H59.9775V49.1502H61.2963V49.1464Z" fill="#141F26"/>
<path d="M64.0156 52.4012V48.0884H64.9242V48.6289C65.0929 48.4028 65.2807 48.2417 65.4839 48.1497C65.6871 48.0577 65.9286 48.0117 66.2046 48.0117H66.3043V48.8973H66.0743C65.7293 48.8973 65.4647 48.9893 65.2807 49.1733C65.043 49.3957 64.9242 49.7752 64.9242 50.3157V52.3974H64.0156V52.4012Z" fill="#141F26"/>
<path d="M67.7264 52.2019C67.3967 52.0103 67.1399 51.7457 66.9597 51.4045C66.7757 51.0633 66.6875 50.6685 66.6875 50.2276C66.6875 49.8021 66.7795 49.4187 66.9597 49.0814C67.1437 48.744 67.3967 48.4833 67.7264 48.2955C68.0561 48.1076 68.4318 48.0156 68.8535 48.0156C69.2752 48.0156 69.6509 48.1076 69.9806 48.2955C70.3103 48.4833 70.5671 48.744 70.7511 49.0814C70.9351 49.4187 71.0272 49.8021 71.0272 50.2276C71.0272 50.6647 70.9351 51.0557 70.755 51.3969C70.5709 51.7381 70.3179 52.0064 69.9882 52.1981C69.6585 52.3898 69.2829 52.4856 68.8535 52.4856C68.4318 52.4895 68.0561 52.3936 67.7264 52.2019ZM69.4937 51.5042C69.6854 51.3777 69.8311 51.2052 69.9384 50.9828C70.0419 50.7605 70.0956 50.5113 70.0956 50.2276C70.0956 49.9593 70.0419 49.7177 69.9384 49.4992C69.8311 49.2807 69.6854 49.1082 69.4937 48.9855C69.302 48.8629 69.0912 48.8015 68.8535 48.8015C68.6158 48.8015 68.405 48.8629 68.2133 48.9817C68.0216 49.1044 67.8759 49.2731 67.7686 49.4916C67.6612 49.7101 67.6114 49.9554 67.6114 50.2276C67.6114 50.5151 67.6651 50.772 67.7724 50.9905C67.8797 51.2129 68.0293 51.3854 68.2171 51.5081C68.405 51.6307 68.6158 51.6921 68.8535 51.6921C69.0912 51.6921 69.302 51.6307 69.4937 51.5042Z" fill="#141F26"/>
<path d="M72.6 52.2058C72.3164 52.0179 72.0902 51.7534 71.933 51.416C71.772 51.0748 71.6953 50.6877 71.6953 50.2506C71.6953 49.8136 71.7758 49.4264 71.933 49.0852C72.094 48.744 72.3164 48.4833 72.6 48.2955C72.8837 48.1076 73.2173 48.0156 73.593 48.0156C73.8651 48.0156 74.1028 48.0655 74.3022 48.1613C74.5015 48.261 74.697 48.4297 74.8811 48.6788V46.5205H75.7896V52.4089H74.8811V51.8224C74.697 52.0678 74.5054 52.2441 74.306 52.3438C74.1067 52.4434 73.869 52.4933 73.593 52.4933C73.2173 52.4895 72.8876 52.3936 72.6 52.2058ZM74.3942 51.5157C74.5744 51.393 74.7162 51.2205 74.8197 50.9982C74.9232 50.7758 74.9731 50.5266 74.9731 50.2506C74.9731 49.9746 74.9232 49.7216 74.8197 49.5031C74.7162 49.2807 74.5744 49.1082 74.3942 48.9855C74.214 48.8628 74.007 48.8015 73.777 48.8015C73.4204 48.8015 73.1406 48.9395 72.9297 49.2117C72.7189 49.4839 72.6116 49.8327 72.6116 50.2544C72.6116 50.6761 72.7151 51.025 72.9297 51.2972C73.1406 51.5694 73.4243 51.7074 73.777 51.7074C74.007 51.6997 74.214 51.6384 74.3942 51.5157Z" fill="#141F26"/>
<path d="M76.9301 51.7768C76.8649 51.6388 76.8151 51.4816 76.7883 51.3091C76.7614 51.1366 76.7461 50.9027 76.7461 50.6114V48.0889H77.6547V50.6191C77.6547 51.0523 77.7275 51.3513 77.877 51.5123C77.9997 51.6503 78.1952 51.7193 78.4636 51.7193C78.7549 51.7193 78.9888 51.6273 79.1574 51.4433C79.2648 51.3244 79.3414 51.1673 79.3875 50.9679C79.4335 50.7686 79.4565 50.504 79.4565 50.1705V48.0889H80.365V52.4017H79.4565V51.8152C79.2763 52.0528 79.0923 52.2215 78.9044 52.3289C78.7166 52.4324 78.4981 52.486 78.245 52.486C77.601 52.4899 77.1601 52.2522 76.9301 51.7768Z" fill="#141F26"/>
<path d="M82.2189 52.2019C81.893 52.0103 81.6438 51.7457 81.4637 51.4045C81.2835 51.0633 81.1953 50.6685 81.1953 50.2276C81.1953 49.8021 81.2835 49.4187 81.4637 49.0814C81.6438 48.744 81.8969 48.4833 82.2189 48.2955C82.5447 48.1076 82.9166 48.0156 83.3383 48.0156C83.8482 48.0156 84.2775 48.146 84.6302 48.4028C84.9829 48.6597 85.2091 49.0085 85.3126 49.4532H84.3235C84.2507 49.2385 84.128 49.0699 83.9555 48.951C83.783 48.8322 83.576 48.7747 83.3345 48.7747C83.0968 48.7747 82.8859 48.836 82.7019 48.9549C82.5179 49.0775 82.3722 49.2462 82.2687 49.4686C82.1652 49.6909 82.1154 49.9439 82.1154 50.2315C82.1154 50.5305 82.1652 50.7912 82.2687 51.0173C82.3722 51.2435 82.5141 51.4199 82.7019 51.5426C82.8859 51.6652 83.0968 51.7266 83.3345 51.7266C83.5952 51.7266 83.8175 51.6614 83.9939 51.5272C84.1702 51.393 84.289 51.209 84.3465 50.979H85.3356C85.2398 51.4505 85.0098 51.8224 84.6494 52.0908C84.289 52.3591 83.852 52.4933 83.3383 52.4933C82.9128 52.4895 82.5409 52.3936 82.2189 52.2019Z" fill="#141F26"/>
<path d="M87.4529 52.4012C87.1194 52.4012 86.8664 52.3245 86.6977 52.1712C86.529 52.0178 86.4447 51.761 86.4447 51.4083V48.8474H85.793V48.0922H86.4408V46.5166H87.3494V48.0922H88.2273V48.8474H87.3494V51.1553C87.3494 51.3201 87.3763 51.4428 87.4261 51.5233C87.4759 51.6038 87.5909 51.6422 87.7673 51.6422H88.2235V52.405H87.4529V52.4012Z" fill="#141F26"/>
<path d="M89.0436 47.3755C88.9286 47.272 88.8711 47.1378 88.8711 46.9768C88.8711 46.8158 88.9286 46.6854 89.0436 46.5781C89.1586 46.4746 89.3005 46.4209 89.4653 46.4209C89.634 46.4209 89.7758 46.4746 89.8908 46.5781C90.002 46.6854 90.0595 46.8158 90.0595 46.9768C90.0595 47.1378 90.002 47.2681 89.8908 47.3755C89.7758 47.4828 89.6378 47.5326 89.4653 47.5326C89.2966 47.5365 89.1586 47.4828 89.0436 47.3755ZM89.9177 52.4013H89.0091V48.0885H89.9177V52.4013Z" fill="#141F26"/>
<path d="M92.8465 52.4017H92.1066L90.5156 48.0889H91.5047L92.4708 50.9679L93.4675 48.0889H94.4489L92.8465 52.4017Z" fill="#141F26"/>
<path d="M95.0866 47.3755C94.9716 47.272 94.9141 47.1378 94.9141 46.9768C94.9141 46.8158 94.9716 46.6854 95.0866 46.5781C95.2016 46.4746 95.3434 46.4209 95.5083 46.4209C95.677 46.4209 95.8188 46.4746 95.9338 46.5781C96.045 46.6854 96.1025 46.8158 96.1025 46.9768C96.1025 47.1378 96.045 47.2681 95.9338 47.3755C95.8188 47.4828 95.6808 47.5326 95.5083 47.5326C95.3434 47.5365 95.2054 47.4828 95.0866 47.3755ZM95.9645 52.4013H95.0559V48.0885H95.9645V52.4013Z" fill="#141F26"/>
<path d="M98.3124 52.4012C97.9788 52.4012 97.7258 52.3245 97.5571 52.1712C97.3885 52.0178 97.3041 51.761 97.3041 51.4083V48.8474H96.6562V48.0922H97.3041V46.5166H98.2127V48.0922H99.0906V48.8474H98.2127V51.1553C98.2127 51.3201 98.2395 51.4428 98.2894 51.5233C98.3392 51.6038 98.4542 51.6422 98.6306 51.6422H99.0868V52.405H98.3124V52.4012Z" fill="#141F26"/>
<path d="M99.898 53.9773V53.1991H100.354C100.515 53.1991 100.634 53.1761 100.715 53.1262C100.795 53.0764 100.868 52.9691 100.933 52.8042L101.086 52.3864L99.4648 48.0889H100.454L101.566 51.3206L102.57 48.0889H103.559L101.8 53.0266C101.669 53.3869 101.52 53.6361 101.343 53.7703C101.167 53.9083 100.918 53.9735 100.596 53.9735H99.898V53.9773Z" fill="#141F26"/>
<path d="M104.173 52.3216C104.058 52.2104 104.004 52.0763 104.004 51.9152C104.004 51.7619 104.061 51.6316 104.173 51.5204C104.284 51.413 104.422 51.3594 104.583 51.3594C104.732 51.3594 104.859 51.413 104.97 51.5242C105.077 51.6354 105.131 51.7657 105.131 51.9152C105.131 52.0686 105.077 52.2028 104.97 52.3178C104.863 52.429 104.732 52.4865 104.583 52.4865C104.422 52.4903 104.288 52.4328 104.173 52.3216Z" fill="#141F26"/>
<path d="M74.6304 20.5483L74.5614 20.5981C73.2004 21.5642 71.391 21.5718 70.0071 20.6403L68.0251 19.5208C66.7945 18.942 65.4105 18.781 64.0879 19.08C61.2472 19.724 58.9739 22.0625 57.5976 23.8528C57.1759 24.401 56.8424 24.8956 56.5971 25.2789C56.5396 25.3671 56.4897 25.4515 56.4437 25.5243C56.6967 25.8655 57.0724 26.3447 57.5516 26.8737C55.7537 25.0566 53.7525 22.3999 51.6172 18.5509C51.6364 18.5088 51.6555 18.4628 51.6747 18.4206C51.9584 17.7957 52.2842 17.1938 52.6484 16.6188C55.355 12.3213 60.1355 9.4691 65.5869 9.48444C69.501 9.49594 73.1084 11.6236 75.5351 14.9627C76.8462 16.7491 76.436 19.264 74.6304 20.5483Z" fill="url(#paint0_linear_573_2493)"/>
<path d="M42.8278 30.8419C42.2029 31.5435 41.7812 31.9767 41.7812 31.9767C39.5002 33.9855 36.3835 35.5304 33.5428 35.5304C28.7239 35.5304 25.5228 32.6054 24.5606 28.6913C24.4149 28.1047 24.3229 27.4952 24.2807 26.8703C24.2654 26.6211 24.2539 26.3719 24.2539 26.1189C24.2539 20.9895 28.4671 16.577 33.9223 16.4505C36.4563 16.393 38.5226 16.9221 40.1596 17.8536C40.1596 17.8536 40.9263 18.2408 42.0266 18.9654C36.6825 16.9489 33.3626 20.1921 33.3626 20.1921C30.426 22.8718 30.196 27.4032 32.8489 30.3091C35.4596 33.1651 39.8912 33.3913 42.8278 30.8419Z" fill="#141F26"/>
<path d="M66.1089 30.4313C66.0782 30.4467 66.0476 30.4582 66.0131 30.4697C65.9824 30.4812 65.9517 30.4965 65.9172 30.508C65.8865 30.5195 65.8559 30.5348 65.8214 30.5463C65.7907 30.5578 65.7562 30.5693 65.7255 30.5808C65.7064 30.5885 65.6834 30.5962 65.6642 30.6038C65.6412 30.6115 65.6182 30.623 65.5914 30.6307C65.5722 30.6383 65.553 30.646 65.5338 30.6498C65.4687 30.6728 65.4073 30.6958 65.3422 30.715C65.3115 30.7265 65.2808 30.7342 65.2502 30.7457C65.208 30.761 65.1697 30.7725 65.1275 30.784C65.0815 30.7994 65.0355 30.8109 64.9856 30.8262C64.9473 30.8377 64.909 30.8492 64.8668 30.8607C64.8285 30.8722 64.794 30.8799 64.7556 30.8914C64.7288 30.899 64.702 30.9067 64.6751 30.9144C64.6368 30.9259 64.5984 30.9335 64.5563 30.945C64.5103 30.9565 64.4681 30.968 64.4221 30.9795C64.3684 30.991 64.3186 31.0025 64.2649 31.0179C64.2304 31.0255 64.1959 31.0332 64.1614 31.0409C63.9851 31.0792 63.8087 31.1137 63.6324 31.1406C63.5059 31.1636 63.3794 31.1789 63.2528 31.1981C63.2222 31.2019 63.1877 31.2057 63.157 31.2096C63.1263 31.2134 63.0957 31.2172 63.0612 31.2211C63.0075 31.2287 62.9538 31.2326 62.9002 31.2402C62.8963 31.2402 62.8963 31.2402 62.8925 31.2402C62.8388 31.2441 62.7851 31.2517 62.7276 31.2556C62.7238 31.2556 62.72 31.2556 62.72 31.2556C62.6663 31.2594 62.6165 31.2632 62.5628 31.2671C62.5091 31.2709 62.4516 31.2747 62.398 31.2786C61.9916 31.3016 61.5929 31.3016 61.1904 31.2862C61.1175 31.2824 61.0447 31.2786 60.9718 31.2747C60.6805 31.2556 60.393 31.2287 60.1054 31.1904C59.9981 31.1751 59.8908 31.1597 59.7834 31.1444C59.7489 31.1405 59.7106 31.1329 59.6761 31.129C59.6032 31.1175 59.5342 31.1061 59.4614 31.0945C59.3541 31.0754 59.2505 31.0562 59.1432 31.0332C59.1087 31.0255 59.0742 31.0179 59.0359 31.0102C58.9669 30.9949 58.894 30.9795 58.825 30.9642C58.7215 30.9412 58.6142 30.9144 58.5107 30.8914C58.4417 30.8722 58.3727 30.8569 58.3036 30.8377C58.2807 30.8339 58.2576 30.8262 58.2346 30.8185C58.112 30.784 57.9893 30.7495 57.8666 30.715C57.7861 30.692 57.7018 30.6652 57.6213 30.6422C57.4986 30.6038 57.3797 30.5655 57.2571 30.5272C57.1152 30.4812 56.9734 30.4313 56.8354 30.3815C56.682 30.324 56.5287 30.2665 56.3792 30.209C56.337 30.1936 56.2948 30.1745 56.2527 30.1591C56.1262 30.1093 55.9996 30.0556 55.8731 30.002C55.8271 29.9828 55.7811 29.9636 55.739 29.9445C55.6508 29.9061 55.5588 29.864 55.4706 29.8256C55.3824 29.7834 55.2943 29.7451 55.2061 29.7029C55.1179 29.6608 55.0297 29.6186 54.9454 29.5764C54.8572 29.5343 54.7729 29.4921 54.6885 29.4461C54.4739 29.3388 54.263 29.2276 54.056 29.1126C53.9717 29.0666 53.8912 29.0206 53.8107 28.9746C53.7301 28.9286 53.6496 28.8826 53.5691 28.8327C53.3276 28.6909 53.0938 28.549 52.8637 28.4033L52.5111 28.1733C51.7367 27.6596 51.0351 27.1306 50.4141 26.6322C48.6199 25.1831 47.535 23.9679 47.535 23.9679C45.8406 21.7252 43.5787 20.0039 42.0031 18.9726C40.9029 18.2481 40.1361 17.8609 40.1361 17.8609C38.4992 16.9293 36.4329 16.4003 33.8988 16.4578C28.4436 16.5843 24.2305 20.9968 24.2305 26.1262C24.2305 26.3792 24.2381 26.6284 24.2573 26.8776H23.3372C23.2452 26.1914 23.1992 25.4898 23.1992 24.7729C23.1992 16.3313 29.8429 9.48828 38.043 9.48828C43.6171 9.48828 48.4743 12.6549 51.0121 17.3319C51.2306 17.7037 51.4491 18.0679 51.6638 18.4206C51.821 18.6775 51.9782 18.9266 52.1315 19.1758C52.1775 19.2525 52.2274 19.3292 52.2734 19.402C52.327 19.4825 52.3769 19.5669 52.4267 19.6435C52.5034 19.7662 52.5801 19.885 52.6567 20.0001C52.6836 20.0384 52.7066 20.0767 52.7334 20.1189C52.7717 20.1764 52.8101 20.2377 52.8484 20.2952C52.8867 20.3527 52.9251 20.4103 52.9634 20.4678C52.9903 20.5061 53.0133 20.5444 53.0401 20.5828C53.0708 20.6288 53.1053 20.6786 53.1359 20.7246C53.1896 20.8051 53.2433 20.8818 53.2969 20.9623C53.3506 21.039 53.4043 21.1195 53.4541 21.1961C53.481 21.2345 53.5078 21.2728 53.5346 21.3112C53.5461 21.3265 53.5576 21.3418 53.5653 21.3572C53.6151 21.43 53.665 21.499 53.7148 21.5718C53.8643 21.7865 54.01 21.9935 54.1595 22.2006C54.2055 22.2657 54.2553 22.3309 54.3013 22.3961C54.332 22.4382 54.3589 22.4766 54.3895 22.5187C54.4164 22.5532 54.4394 22.5878 54.4662 22.6223C54.5084 22.6798 54.5505 22.7334 54.5889 22.7909C54.6157 22.8293 54.6425 22.8638 54.6694 22.9021C54.7384 22.9941 54.8036 23.0823 54.8726 23.1743C54.9109 23.228 54.9531 23.2778 54.9914 23.3315C55.0221 23.3698 55.0527 23.412 55.0834 23.4503C55.1064 23.4771 55.1256 23.5078 55.1486 23.5346C55.1716 23.5615 55.1908 23.5922 55.2138 23.619C55.3134 23.7493 55.4169 23.8758 55.5166 24.0024C55.5396 24.033 55.5664 24.0637 55.5894 24.0944C55.6623 24.1864 55.739 24.2784 55.8118 24.3704C55.8463 24.4125 55.877 24.4509 55.9115 24.4931C55.9575 24.5467 56.0035 24.6042 56.0456 24.6579C56.084 24.7039 56.1185 24.7461 56.1568 24.7882C56.1645 24.7998 56.1722 24.8074 56.1798 24.8189C56.2182 24.8649 56.2565 24.9109 56.2987 24.9569C56.3025 24.9646 56.3102 24.9684 56.314 24.9761C56.4022 25.0796 56.4903 25.1831 56.5785 25.2828C60.8722 30.1975 63.8969 30.7227 65.3192 30.5962C65.7025 30.5578 65.9594 30.485 66.1089 30.4313Z" fill="url(#paint1_linear_573_2493)"/>
<path d="M77.2117 32.3556C75.1953 37.0365 71.1508 40.0536 65.5921 40.0536C63.7711 40.0536 61.8773 39.6012 60.064 38.7846C60.0601 38.7846 60.0563 38.7808 60.0563 38.7808C56.4987 37.2282 53.5928 34.215 51.4613 31.3474C51.4498 31.3359 51.4422 31.3206 51.4307 31.3091C48.797 27.7553 47.3594 24.4392 47.3594 24.4392C47.367 24.4201 47.3785 24.4009 47.3862 24.3817C47.4475 24.2399 47.5051 24.1019 47.5587 23.9639C47.5587 23.9639 48.6436 25.183 50.4378 26.6282C51.0588 27.1266 51.7604 27.6556 52.5348 28.1693C52.6114 28.223 52.6919 28.2728 52.7724 28.3265C52.8108 28.3495 52.8491 28.3764 52.8874 28.4032C53.1175 28.5489 53.3513 28.6946 53.5928 28.8326C53.6733 28.8786 53.7538 28.9246 53.8344 28.9744C53.9149 29.0204 53.9992 29.0664 54.0797 29.1124C54.2867 29.2274 54.4976 29.3386 54.7123 29.4459C54.7966 29.4881 54.8848 29.5341 54.9691 29.5763C55.0573 29.6184 55.1416 29.6606 55.2298 29.7028C55.318 29.745 55.4061 29.7833 55.4943 29.8255C55.5825 29.8676 55.6707 29.906 55.7627 29.9443C55.8087 29.9635 55.8508 29.9826 55.8968 30.0018C56.0233 30.0555 56.1499 30.1091 56.2764 30.159C56.3185 30.1782 56.3607 30.1935 56.4029 30.2088C56.5524 30.2702 56.7057 30.3277 56.8591 30.3813C57.0009 30.4312 57.1389 30.481 57.2808 30.527C57.3996 30.5654 57.5223 30.6075 57.645 30.642C57.7255 30.665 57.806 30.6919 57.8903 30.7149C58.013 30.7494 58.1357 30.7839 58.2583 30.8184C58.2814 30.826 58.3043 30.8299 58.3273 30.8375C58.3964 30.8567 58.4654 30.872 58.5344 30.8912C58.6379 30.918 58.7414 30.941 58.8487 30.964C58.9177 30.9794 58.9867 30.9947 59.0596 31.01C59.0941 31.0177 59.1286 31.0254 59.1669 31.0331C59.2743 31.0561 59.3778 31.0752 59.4851 31.0944C59.5579 31.1059 59.6269 31.1174 59.6998 31.1289C59.7343 31.1366 59.7726 31.1404 59.8071 31.1442C59.9145 31.1596 60.0218 31.1749 60.1291 31.1902C60.4167 31.2286 60.7042 31.2554 60.9955 31.2746C61.0684 31.2784 61.1412 31.2822 61.2141 31.2861C61.6128 31.3052 62.0153 31.3014 62.4217 31.2784C62.4753 31.2746 62.5328 31.2707 62.5865 31.2669C62.6402 31.2631 62.69 31.2592 62.7437 31.2554C62.7475 31.2554 62.7475 31.2554 62.7513 31.2554C62.805 31.2516 62.8587 31.2477 62.9162 31.2401C62.92 31.2401 62.92 31.2401 62.9239 31.2401C62.9775 31.2362 63.0312 31.2286 63.0849 31.2209C63.1155 31.2171 63.1462 31.2132 63.1807 31.2094C63.2114 31.2056 63.242 31.2017 63.2766 31.1979C63.4031 31.1826 63.5296 31.1634 63.6561 31.1404C63.8324 31.1136 64.0088 31.0791 64.1851 31.0407C64.2196 31.0331 64.2541 31.0254 64.2886 31.0177C64.3423 31.0062 64.3921 30.9947 64.4458 30.9794C64.4918 30.9679 64.534 30.9564 64.58 30.9449C64.6183 30.9334 64.6567 30.9257 64.6988 30.9142C64.7257 30.9065 64.7525 30.8989 64.7793 30.8912C64.8177 30.8797 64.8522 30.872 64.8905 30.8605C64.9288 30.849 64.9672 30.8375 65.0093 30.826C65.0553 30.8107 65.1013 30.7992 65.1512 30.7839C65.1934 30.7724 65.2317 30.757 65.2739 30.7455C65.3045 30.734 65.3352 30.7264 65.3659 30.7149C65.431 30.6919 65.4924 30.6727 65.5576 30.6497C65.5767 30.642 65.5959 30.6382 65.6151 30.6305C65.6381 30.6229 65.6611 30.6152 65.6879 30.6037C65.7071 30.596 65.7301 30.5884 65.7492 30.5807C65.7799 30.5692 65.8106 30.5577 65.8451 30.5462C65.8757 30.5347 65.9064 30.5232 65.9409 30.5078C65.9716 30.4963 66.0023 30.4848 66.0368 30.4695C66.0674 30.458 66.0981 30.4427 66.1326 30.4312C66.1863 30.4082 66.2361 30.389 66.2898 30.366L66.9492 30.1015C67.1562 30.021 67.3632 29.9251 67.574 29.8216L72.0134 27.5291C73.4126 26.7892 75.1263 27.0039 76.2993 28.0658L76.307 28.0735C77.4763 29.1546 77.8481 30.8759 77.2117 32.3556Z" fill="url(#paint2_linear_573_2493)"/>
<path opacity="0.18" d="M57.595 23.8492C57.1733 24.3974 56.8398 24.8919 56.5945 25.2753C56.5063 25.1756 56.4181 25.0721 56.3299 24.9686C56.3261 24.9609 56.3184 24.9571 56.3146 24.9494C56.2763 24.9034 56.2379 24.8574 56.1958 24.8114C56.1881 24.7999 56.1804 24.7923 56.1728 24.7808C56.1344 24.7386 56.0999 24.6926 56.0616 24.6504C56.0156 24.5968 55.9696 24.5431 55.9274 24.4856C55.8929 24.4472 55.8622 24.4051 55.8277 24.3629C55.7549 24.2709 55.6782 24.1789 55.6054 24.0869C55.5824 24.0562 55.5556 24.0255 55.5326 23.9949C55.4329 23.8684 55.3332 23.7418 55.2297 23.6115C55.2067 23.5847 55.1875 23.554 55.1645 23.5272C55.1415 23.5003 55.1224 23.4697 55.0994 23.4428C55.0687 23.4045 55.038 23.3623 55.0073 23.324C54.969 23.2703 54.9268 23.2205 54.8885 23.1668C54.8195 23.0786 54.7543 22.9866 54.6853 22.8946C54.6585 22.8601 54.6316 22.8218 54.6048 22.7835C54.5626 22.7259 54.5243 22.6723 54.4821 22.6148C54.4553 22.5803 54.4323 22.5458 54.4055 22.5113C54.3748 22.4729 54.348 22.4308 54.3173 22.3886C54.2713 22.3234 54.2214 22.2582 54.1754 22.1931C54.0298 21.9899 53.8803 21.779 53.7308 21.5644C53.6809 21.4915 53.6311 21.4225 53.5812 21.3497C53.5697 21.3343 53.5582 21.319 53.5506 21.3037C53.5237 21.2653 53.4969 21.227 53.4701 21.1887C53.4164 21.112 53.3627 21.0353 53.3129 20.9548C53.2592 20.8781 53.2055 20.7976 53.1519 20.7171C53.1212 20.6711 53.0867 20.6213 53.056 20.5753C52.9564 20.4219 52.8528 20.2686 52.7532 20.1114C52.7263 20.0731 52.7033 20.0347 52.6765 19.9926C52.5998 19.8737 52.5232 19.7549 52.4465 19.636C52.3966 19.5555 52.343 19.475 52.2931 19.3945C52.2471 19.3179 52.1973 19.245 52.1513 19.1683C51.998 18.923 51.8408 18.67 51.6836 18.4131C51.9673 17.7882 52.2931 17.1864 52.6573 16.6113C53.7844 18.4668 55.9389 21.7982 57.595 23.8492Z" fill="black"/>
<path d="M51.4329 31.3054C48.7993 27.7516 47.3616 24.4355 47.3616 24.4355C47.2811 24.6157 47.193 24.7997 47.0971 24.9876C47.0856 25.0106 47.0741 25.0336 47.0588 25.0604C45.9585 27.1766 44.0226 29.4998 42.8265 30.8454C42.2016 31.5469 41.7799 31.9801 41.7799 31.9801C39.4989 33.9889 36.3822 35.5339 33.5415 35.5339C28.7226 35.5339 25.5215 32.6088 24.5593 28.6947C24.4136 28.1082 24.3216 27.4986 24.2794 26.8737H23.3594C23.4437 27.4948 23.5626 28.1005 23.7159 28.6947C25.3989 35.2348 31.1838 40.0575 38.0651 40.0575C42.4508 40.0575 46.3917 38.0986 49.1098 34.9818C49.5928 34.4298 50.0337 33.8394 50.4362 33.2184C50.8196 32.6203 51.1646 31.9954 51.4675 31.3437C51.4521 31.3284 51.4406 31.3169 51.4329 31.3054Z" fill="url(#paint3_linear_573_2493)"/>
<path d="M24.5605 28.6908C24.6142 28.9094 24.6755 29.1279 24.7445 29.3387H23.8973C23.8321 29.124 23.7708 28.9094 23.7133 28.6908C23.5599 28.0966 23.4411 27.4909 23.3568 26.8699C23.2648 26.1837 23.2188 25.4821 23.2188 24.7652C23.2188 24.1097 23.2571 23.4695 23.3376 22.8369H24.8519C24.4685 23.8682 24.2577 24.9761 24.2577 26.1185C24.2577 26.3715 24.2653 26.6207 24.2845 26.8699C24.319 27.4948 24.4148 28.1043 24.5605 28.6908Z" fill="url(#paint4_linear_573_2493)"/>
<path d="M46.6946 25.7159C46.2576 26.4711 45.7669 27.1956 45.2762 27.9163C44.7778 28.6332 44.2372 29.3194 43.6699 29.9865C43.3862 30.32 43.0948 30.6459 42.7958 30.9641C42.4968 31.2823 42.1863 31.5928 41.8681 31.8918C41.2279 32.4898 40.5455 33.0457 39.8171 33.5364C39.4529 33.7818 39.0772 34.0118 38.69 34.2265C38.3028 34.4373 37.9079 34.629 37.4978 34.8015C36.685 35.1427 35.8301 35.3957 34.9561 35.5337C34.082 35.6717 33.1888 35.7024 32.3032 35.6181C31.4215 35.5337 30.5436 35.3344 29.7155 35.0085C29.3015 34.8475 28.8951 34.6558 28.5079 34.4297C28.1207 34.2035 27.7527 33.9466 27.4115 33.6591C27.0665 33.3716 26.7483 33.0611 26.4493 32.7275C26.1541 32.394 25.8819 32.0375 25.6365 31.6656C24.659 30.1743 24.0839 28.4147 24.0188 26.6283C23.9843 25.735 24.0763 24.8341 24.3024 23.9677C24.5248 23.1013 24.8775 22.2656 25.3337 21.4989C25.5599 21.1155 25.8167 20.7437 26.0927 20.3948C26.3688 20.0459 26.6678 19.7124 26.9898 19.3981C27.6262 18.7732 28.3431 18.2288 29.1098 17.7764C29.8765 17.3241 30.7007 16.9637 31.5556 16.7069C31.9812 16.5765 32.4182 16.473 32.8552 16.3963C33.2961 16.3197 33.7408 16.2698 34.1855 16.2506C35.0749 16.2085 35.9758 16.2737 36.8499 16.4538C37.7239 16.634 38.5712 16.9139 39.3839 17.2666C40.1966 17.6192 40.9748 18.041 41.7224 18.5163C42.0943 18.754 42.4546 19.007 42.8111 19.2677C43.1638 19.5322 43.5127 19.8006 43.8501 20.0843C45.2072 21.2037 46.4377 22.4573 47.6415 23.7185L48.0939 24.1939C48.2434 24.3511 48.3929 24.5044 48.5462 24.6616C48.6996 24.815 48.8529 24.9683 49.0101 25.1178C49.0868 25.1906 49.1673 25.2673 49.244 25.3402L49.4816 25.5625C50.118 26.1491 50.7889 26.7011 51.479 27.2225C52.8667 28.2575 54.358 29.1661 55.9451 29.8562C56.7387 30.205 57.5552 30.4964 58.3948 30.7187C59.2305 30.9449 60.0893 31.0944 60.9518 31.1634C61.8144 31.2324 62.6884 31.2094 63.551 31.0944C64.4136 30.9794 65.2608 30.7571 66.0774 30.4504C65.2723 30.7839 64.4289 31.0292 63.5625 31.1711C62.6999 31.3091 61.8182 31.3551 60.9441 31.3053C60.0701 31.2554 59.1999 31.1213 58.345 30.9104C57.4939 30.6996 56.6582 30.4235 55.8493 30.0862C54.2277 29.4115 52.7019 28.5182 51.2834 27.4908C50.5742 26.9733 49.8918 26.4212 49.2363 25.8347L48.9909 25.6123C48.9104 25.5395 48.8299 25.4628 48.7494 25.3862C48.5884 25.2366 48.4312 25.0833 48.274 24.93C48.1169 24.7766 47.9635 24.6194 47.8102 24.4623L47.354 23.9946C46.7444 23.3735 46.1311 22.7525 45.5023 22.1544C45.188 21.8554 44.8698 21.5602 44.5478 21.2689C44.2219 20.9813 43.8961 20.6976 43.5625 20.4255C43.229 20.1494 42.884 19.8888 42.539 19.6319C42.1901 19.3827 41.8336 19.1335 41.4694 18.9073C40.741 18.4473 39.9781 18.0448 39.1884 17.7074C38.3987 17.3739 37.5821 17.1017 36.7464 16.933C35.9106 16.7644 35.0557 16.703 34.2047 16.7452C33.7791 16.7682 33.3574 16.8142 32.9357 16.887C32.5179 16.9599 32.1 17.0634 31.6937 17.1861C30.8771 17.4352 30.0912 17.7803 29.359 18.2135C28.6229 18.6428 27.9405 19.1604 27.331 19.7584C27.0281 20.0574 26.7406 20.3718 26.4761 20.7053C26.2116 21.0388 25.9701 21.3877 25.7515 21.7557C25.3145 22.4841 24.981 23.2738 24.7701 24.0942C24.5555 24.9146 24.4635 25.7657 24.4903 26.6168C24.544 28.315 25.0768 29.998 26.0007 31.4279C26.2346 31.7845 26.4876 32.1257 26.7675 32.4477C27.0473 32.7659 27.3502 33.0649 27.676 33.3409C27.9981 33.6169 28.3469 33.8623 28.7111 34.0846C29.0753 34.3032 29.4587 34.491 29.8535 34.6482C30.6432 34.9664 31.4828 35.1696 32.3339 35.2616C33.1849 35.3536 34.0475 35.3344 34.8986 35.2117C35.7496 35.089 36.5815 34.859 37.3827 34.5408C37.7814 34.3798 38.1725 34.1996 38.5558 33.9965C38.9392 33.7933 39.3072 33.5748 39.6714 33.3409C40.396 32.8694 41.0822 32.3365 41.7262 31.7576C42.0483 31.4663 42.3626 31.1673 42.6655 30.8567C42.9683 30.5462 43.2635 30.228 43.5549 29.9022C44.1337 29.2543 44.6896 28.5796 45.2033 27.878C45.7247 27.1688 46.2346 26.4596 46.6946 25.7159Z" fill="url(#paint5_linear_573_2493)"/>
<path d="M20.5252 31.7849H17.8608C16.5996 31.7849 15.5798 30.7652 15.5798 29.5039V18.3174H20.437C21.6331 18.3174 22.603 17.3475 22.603 16.1514V12.2641C22.603 11.068 21.6331 10.0981 20.437 10.0981H15.5798V4.41289C15.5798 3.2398 14.6291 2.28906 13.456 2.28906H9.0895C7.91642 2.28906 6.96568 3.2398 6.96568 4.41289V10.0981H2.16599C0.969905 10.0981 0 11.068 0 12.2641V16.1514C0 17.3475 0.969905 18.3174 2.16599 18.3174H6.96568V31.4399C6.96568 36.1974 10.8223 40.054 15.5798 40.054H20.5252C21.7443 40.054 22.7333 39.0649 22.7333 37.8459V33.9892C22.7295 32.7702 21.7443 31.7849 20.5252 31.7849Z" fill="#141F26"/>
<path d="M97.6736 31.7849H95.0093C93.748 31.7849 92.7283 30.7652 92.7283 29.5039V18.3174H97.5855C98.7815 18.3174 99.7514 17.3475 99.7514 16.1514V12.2641C99.7514 11.068 98.7815 10.0981 97.5855 10.0981H92.7283V4.41289C92.7283 3.2398 91.7775 2.28906 90.6044 2.28906H86.2418C85.0687 2.28906 84.118 3.2398 84.118 4.41289V10.0981H79.3144C78.1183 10.0981 77.1484 11.068 77.1484 12.2641V16.1514C77.1484 17.3475 78.1183 18.3174 79.3144 18.3174H84.1141V31.4399C84.1141 36.1974 87.9707 40.054 92.7283 40.054H97.6736C98.8927 40.054 99.8818 39.0649 99.8818 37.8459V33.9892C99.8818 32.7702 98.8927 31.7849 97.6736 31.7849Z" fill="#141F26"/>
<path d="M138.877 0H134.514C133.341 0 132.391 0.950738 132.391 2.12382V37.8838C132.391 39.0569 133.341 40.0076 134.514 40.0076H138.877C140.05 40.0076 141.001 39.0569 141.001 37.8838V2.12382C141.005 0.950738 140.05 0 138.877 0Z" fill="#141F26"/>
<path d="M121.619 11.6079L116.033 26.5206L110.271 11.5619C109.937 10.7031 109.109 10.1357 108.186 10.1357H103.593C102.021 10.1357 100.955 11.7344 101.557 13.1835L111.574 37.2969L107.748 47.0803C107.173 48.5524 108.258 50.1395 109.838 50.1395H113.963C115.006 50.1395 115.937 49.5032 116.317 48.5333L120.484 37.8758L130.217 12.9841C130.754 11.6155 129.742 10.1357 128.274 10.1357H123.777C122.822 10.1357 121.964 10.7185 121.619 11.6079Z" fill="#141F26"/>
<defs>
<linearGradient id="paint0_linear_573_2493" x1="51.6226" y1="18.1746" x2="76.3037" y2="18.1746" gradientUnits="userSpaceOnUse">
<stop offset="0.3542" stop-color="#7736DC"/>
<stop offset="0.6274" stop-color="#9947D4"/>
<stop offset="0.9323" stop-color="#C45DCA"/>
</linearGradient>
<linearGradient id="paint1_linear_573_2493" x1="23.2179" y1="20.3861" x2="66.1092" y2="20.3861" gradientUnits="userSpaceOnUse">
<stop stop-color="#3A8DD5"/>
<stop offset="0.0642878" stop-color="#379AD5"/>
<stop offset="0.2148" stop-color="#32B4D6"/>
<stop offset="0.3507" stop-color="#2FC4D7"/>
<stop offset="0.4583" stop-color="#2EC9D7"/>
<stop offset="0.5414" stop-color="#3CAED4"/>
<stop offset="0.7203" stop-color="#5878CE"/>
<stop offset="0.8073" stop-color="#6363CC"/>
</linearGradient>
<linearGradient id="paint2_linear_573_2493" x1="47.3645" y1="32.0051" x2="77.5199" y2="32.0051" gradientUnits="userSpaceOnUse">
<stop stop-color="#603CA3"/>
<stop offset="0.4948" stop-color="#5159BD"/>
<stop offset="1" stop-color="#2DB8E0"/>
</linearGradient>
<linearGradient id="paint3_linear_573_2493" x1="23.3564" y1="32.243" x2="51.4619" y2="32.243" gradientUnits="userSpaceOnUse">
<stop offset="0.0625" stop-color="#7736DC"/>
<stop offset="0.0795261" stop-color="#7B38DB"/>
<stop offset="0.2499" stop-color="#A34CD2"/>
<stop offset="0.3855" stop-color="#BB58CC"/>
<stop offset="0.4688" stop-color="#C45DCA"/>
<stop offset="0.6673" stop-color="#A84FD1"/>
<stop offset="0.9635" stop-color="#7736DC"/>
</linearGradient>
<linearGradient id="paint4_linear_573_2493" x1="24.0331" y1="29.3394" x2="24.0331" y2="22.8365" gradientUnits="userSpaceOnUse">
<stop stop-color="#7736DC"/>
<stop offset="0.0570154" stop-color="#713EDB"/>
<stop offset="0.3303" stop-color="#5962D8"/>
<stop offset="0.5867" stop-color="#487CD5"/>
<stop offset="0.8173" stop-color="#3E8CD4"/>
<stop offset="1" stop-color="#3A91D3"/>
</linearGradient>
<linearGradient id="paint5_linear_573_2493" x1="44.4512" y1="37.7258" x2="45.9713" y2="13.3185" gradientUnits="userSpaceOnUse">
<stop stop-color="#C357C0"/>
<stop offset="0.1901" stop-color="#7495E0"/>
<stop offset="0.3358" stop-color="#3EC0F6"/>
<stop offset="0.4063" stop-color="#29D0FF"/>
<stop offset="1" stop-color="#29D0FF"/>
</linearGradient>
</defs>
</svg>
