<svg width="21" height="21" viewBox="0 0 21 21" fill="none" xmlns="http://www.w3.org/2000/svg">
<path d="M16.2292 9.39648H4.27083C3.32735 9.39648 2.5625 10.1613 2.5625 11.1048V17.084C2.5625 18.0275 3.32735 18.7923 4.27083 18.7923H16.2292C17.1727 18.7923 17.9375 18.0275 17.9375 17.084V11.1048C17.9375 10.1613 17.1727 9.39648 16.2292 9.39648Z" stroke="#667085" stroke-width="1.28125" stroke-linecap="round" stroke-linejoin="round"/>
<path d="M5.98047 9.39648V5.97982C5.98047 4.84712 6.43043 3.76082 7.23137 2.95988C8.0323 2.15895 9.11861 1.70898 10.2513 1.70898C11.384 1.70898 12.4703 2.15895 13.2712 2.95988C14.0722 3.76082 14.5221 4.84712 14.5221 5.97982V9.39648" stroke="#667085" stroke-width="1.28125" stroke-linecap="round" stroke-linejoin="round"/>
</svg>
