<svg width="21" height="21" viewBox="0 0 21 21" fill="none" xmlns="http://www.w3.org/2000/svg">
<path d="M17.229 5.76589H15.6394L11.7393 9.66431C11.8736 10.0066 11.8859 10.3848 11.7742 10.7352C11.6625 11.0856 11.4336 11.3868 11.1259 11.5882C10.8182 11.7897 10.4506 11.879 10.0848 11.8412C9.71897 11.8035 9.37732 11.6409 9.11728 11.3809C8.85724 11.1208 8.69467 10.7792 8.6569 10.4134C8.61914 10.0476 8.70848 9.6799 8.90992 9.37222C9.11135 9.06454 9.41258 8.83561 9.76296 8.72391C10.1133 8.61221 10.4915 8.62456 10.8338 8.75889L14.7331 4.85962V3.27001C14.7332 3.05731 14.8177 2.85333 14.968 2.70285L16.4457 1.22514C16.4731 1.19762 16.5074 1.17806 16.545 1.16858C16.5826 1.1591 16.6221 1.16005 16.6593 1.17133C16.7353 1.19354 16.7916 1.25674 16.807 1.33447L17.1999 3.29991L19.1645 3.69283C19.2414 3.7082 19.3046 3.76458 19.3268 3.8406C19.338 3.87753 19.339 3.9168 19.3297 3.95425C19.3204 3.9917 19.3011 4.02593 19.2739 4.05328L17.7953 5.53099C17.645 5.68112 17.4414 5.76558 17.229 5.76589Z" fill="#667085"/>
<path d="M2.24219 10.25C2.24219 12.3738 3.08587 14.4106 4.58762 15.9124C6.08938 17.4141 8.1262 18.2578 10.25 18.2578C11.3016 18.2578 12.3429 18.0507 13.3145 17.6483C14.286 17.2458 15.1688 16.656 15.9124 15.9124C16.656 15.1688 17.2458 14.286 17.6483 13.3145C18.0507 12.3429 18.2578 11.3016 18.2578 10.25C18.2578 9.48296 18.1502 8.74155 17.9495 8.04028C17.9096 7.87926 17.9337 7.70904 18.0167 7.56544C18.0998 7.42184 18.2353 7.31606 18.3948 7.27036C18.5542 7.22465 18.7252 7.24259 18.8717 7.32039C19.0182 7.39819 19.1289 7.5298 19.1803 7.6875C19.4144 8.50238 19.5391 9.36167 19.5391 10.25C19.5391 15.3801 15.3801 19.5391 10.25 19.5391C5.11987 19.5391 0.960938 15.3801 0.960938 10.25C0.960938 5.11988 5.11987 0.960942 10.25 0.960942C11.117 0.960088 11.9788 1.08053 12.8125 1.31884C12.8938 1.34164 12.9698 1.38028 13.0361 1.43254C13.1024 1.48481 13.1577 1.54966 13.1988 1.62337C13.24 1.69708 13.2662 1.7782 13.2759 1.86207C13.2856 1.94593 13.2786 2.03088 13.2553 2.11204C13.2321 2.1932 13.193 2.26897 13.1404 2.33498C13.0878 2.40099 13.0226 2.45596 12.9487 2.49671C12.8748 2.53746 12.7935 2.56319 12.7096 2.57243C12.6257 2.58167 12.5408 2.57423 12.4597 2.55055C11.7411 2.34542 10.9973 2.24164 10.25 2.24219C8.1262 2.24219 6.08938 3.08587 4.58762 4.58763C3.08587 6.08938 2.24219 8.1262 2.24219 10.25Z" fill="#667085"/>
<path d="M6.08488 10.2498C6.08727 10.8156 6.20493 11.3749 6.43069 11.8936C6.65645 12.4124 6.98557 12.8796 7.39795 13.2669C7.81033 13.6542 8.29732 13.9534 8.82919 14.1462C9.36106 14.3391 9.92665 14.4214 10.4914 14.3884C11.0562 14.3553 11.6083 14.2075 12.114 13.9539C12.6198 13.7003 13.0685 13.3463 13.4329 12.9136C13.7972 12.4808 14.0696 11.9783 14.2332 11.4367C14.3969 10.8952 14.4485 10.3259 14.3848 9.7638C14.3669 9.64995 14.3801 9.53337 14.423 9.42641C14.4659 9.31945 14.537 9.22609 14.6287 9.15622C14.7203 9.08636 14.8292 9.04259 14.9437 9.02955C15.0582 9.01652 15.1741 9.0347 15.2791 9.08218C15.4935 9.17784 15.6379 9.38199 15.6567 9.61603C15.7893 10.7395 15.5686 11.8763 15.0253 12.8686C14.4821 13.8608 13.6431 14.6591 12.6252 15.1526C11.6073 15.6461 10.4609 15.8102 9.3454 15.622C8.22991 15.4339 7.20073 14.903 6.40092 14.103C5.60134 13.3038 5.07024 12.2757 4.8813 11.1611C4.69236 10.0465 4.85493 8.9008 5.34648 7.88279C5.83802 6.86478 6.63417 6.02496 7.62451 5.4798C8.61484 4.93464 9.75028 4.71117 10.8733 4.84038C10.9582 4.84826 11.0407 4.87301 11.1159 4.91317C11.1911 4.95334 11.2576 5.00811 11.3113 5.07429C11.3651 5.14046 11.4051 5.2167 11.4291 5.29854C11.453 5.38038 11.4603 5.46617 11.4507 5.55089C11.441 5.6356 11.4145 5.71754 11.3728 5.79189C11.331 5.86624 11.2749 5.9315 11.2076 5.98387C11.1403 6.03623 11.0632 6.07463 10.9809 6.09682C10.8986 6.11901 10.8126 6.12454 10.7281 6.11309C10.1448 6.04565 9.55372 6.10233 8.9938 6.27943C8.43388 6.45653 7.91775 6.75003 7.47927 7.14068C7.04078 7.53133 6.68987 8.01029 6.44956 8.54613C6.20925 9.08196 6.08497 9.66256 6.08488 10.2498Z" fill="#667085"/>
</svg>
