<svg width="41" height="39" viewBox="0 0 41 39" fill="none" xmlns="http://www.w3.org/2000/svg">
<path d="M20.2222 7.22002e-06C18.6305 -0.00227968 17.0893 0.538774 15.8716 1.52734C14.6539 2.5159 13.8383 3.88818 13.5692 5.40113C13.3001 6.91407 13.5949 8.47003 14.4014 9.79344C15.2079 11.1168 16.474 12.1223 17.9756 12.6317V17.3333H11.2356C9.44802 17.3333 7.73367 18.0182 6.46968 19.2371C5.20569 20.4561 4.49559 22.1094 4.49559 23.8333V26.3683C2.99595 26.8795 1.73198 27.8854 0.927077 29.2084C0.122175 30.5314 -0.171825 32.0862 0.0970447 33.598C0.365914 35.1099 1.18034 36.4814 2.39637 37.4701C3.61239 38.4588 5.15172 39.0011 6.74225 39.0011C8.33278 39.0011 9.8721 38.4588 11.0881 37.4701C12.3042 36.4814 13.1186 35.1099 13.3875 33.598C13.6563 32.0862 13.3623 30.5314 12.5574 29.2084C11.7525 27.8854 10.4885 26.8795 8.98891 26.3683V23.8333C8.98891 23.2587 9.22561 22.7076 9.64694 22.3013C10.0683 21.8949 10.6397 21.6667 11.2356 21.6667H29.2089C29.8047 21.6667 30.3762 21.8949 30.7975 22.3013C31.2188 22.7076 31.4555 23.2587 31.4555 23.8333V26.3683C29.9559 26.8795 28.6919 27.8854 27.887 29.2084C27.0821 30.5314 26.7881 32.0862 27.057 33.598C27.3259 35.1099 28.1403 36.4814 29.3563 37.4701C30.5723 38.4588 32.1117 39.0011 33.7022 39.0011C35.2927 39.0011 36.8321 38.4588 38.0481 37.4701C39.2641 36.4814 40.0785 35.1099 40.3474 33.598C40.6163 32.0862 40.3223 30.5314 39.5174 29.2084C38.7125 27.8854 37.4485 26.8795 35.9489 26.3683V23.8333C35.9489 22.1094 35.2388 20.4561 33.9748 19.2371C32.7108 18.0182 30.9964 17.3333 29.2089 17.3333H22.4689V12.6317C23.9677 12.12 25.2309 11.114 26.0352 9.79125C26.8394 8.46852 27.1331 6.91423 26.8643 5.40293C26.5955 3.89163 25.7815 2.52057 24.5662 1.53194C23.3508 0.543303 21.8122 0.000711393 20.2222 7.22002e-06Z" fill="#F9F9F9"/>
</svg>
