<svg width="24" height="24" viewBox="0 0 24 24" fill="none" xmlns="http://www.w3.org/2000/svg">
<path d="M12 0.442383C12.4755 0.511376 12.6817 0.784896 12.975 1.14738C13.1326 1.36306 13.2877 1.58048 13.44 1.79988C14.8405 3.78661 17.5869 4.59884 19.8675 4.99395C20.0833 5.02665 20.2995 5.05656 20.5163 5.0816C20.854 5.19005 20.9379 5.33854 21.12 5.63988C21.1658 5.95428 21.1658 5.95428 21.1666 6.31573C21.1678 6.45163 21.1689 6.58753 21.1701 6.72755C21.169 6.94767 21.169 6.94767 21.1678 7.17223C21.1684 7.40053 21.1684 7.40053 21.1689 7.63344C21.1691 7.95637 21.1687 8.2792 21.167 8.60212C21.1649 9.01069 21.1661 9.41917 21.1682 9.82774C21.1841 13.4884 20.5378 16.4263 17.9452 19.1338C17.8445 19.2348 17.7438 19.3358 17.64 19.4399C17.5455 19.5347 17.451 19.6295 17.3536 19.7272C17.2501 19.8304 17.1467 19.9336 17.04 20.0399C16.9764 20.1058 16.9128 20.1716 16.8472 20.2395C16.3627 20.7365 15.8577 21.172 15.3 21.5849C15.2178 21.646 15.1355 21.7072 15.0507 21.7702C14.4836 22.1853 13.9045 22.5756 13.305 22.9424C13.2327 22.9873 13.1604 23.0322 13.0859 23.0785C12.6454 23.3395 12.2749 23.509 11.76 23.5199C9.98667 22.8128 8.32033 21.3453 6.96004 20.0399C6.84433 19.9318 6.72862 19.8236 6.60941 19.7122C4.59618 17.7982 2.97405 15.2226 2.86706 12.3744C2.8602 11.9516 2.85711 11.5289 2.85566 11.106C2.85498 10.9512 2.85429 10.7963 2.85359 10.6368C2.85233 10.3105 2.85163 9.98426 2.85121 9.65798C2.85055 9.24034 2.84765 8.82276 2.84425 8.40514C2.84148 8.00542 2.84124 7.6057 2.84066 7.20598C2.83918 7.05622 2.8377 6.90647 2.83617 6.75218C2.83653 6.61318 2.83689 6.47418 2.83726 6.33097C2.83683 6.20879 2.83639 6.08661 2.83594 5.96074C2.88686 5.59022 2.98304 5.4277 3.24004 5.15988C3.52052 5.05983 3.52052 5.05983 3.85035 5.00285C3.97118 4.98045 4.09201 4.95805 4.2165 4.93497C4.40883 4.90151 4.40883 4.90151 4.60504 4.86738C6.90399 4.42522 9.40686 3.5685 10.8132 1.55801C10.893 1.43735 10.9728 1.3167 11.055 1.19238C11.5397 0.503277 11.5397 0.503277 12 0.442383ZM11.88 2.99988C11.8058 3.09641 11.7315 3.19293 11.655 3.29238C9.94917 5.39993 7.08081 6.16837 4.56004 6.71988C4.55403 7.42179 4.54971 8.12367 4.54685 8.8256C4.54566 9.06357 4.54403 9.30154 4.54193 9.5395C4.51007 13.2491 5.22191 15.7261 7.87504 18.4424C8.01611 18.5797 8.01611 18.5797 8.16004 18.7199C8.21724 18.7802 8.27445 18.8404 8.33339 18.9025C8.87188 19.4631 9.45271 19.916 10.0875 20.3624C10.1807 20.429 10.2739 20.4956 10.37 20.5642C10.5505 20.6928 10.7318 20.8203 10.914 20.9466C11.0675 21.0547 11.2188 21.1662 11.3662 21.2824C11.5654 21.442 11.5654 21.442 11.88 21.5999C12.4576 21.5 12.9751 21.043 13.4475 20.7074C13.5378 20.6434 13.6281 20.5793 13.7211 20.5134C14.5285 19.9308 15.2481 19.2953 15.96 18.5999C16.0646 18.5027 16.1692 18.4056 16.2769 18.3055C18.1831 16.4929 19.3602 14.2131 19.4505 11.5737C19.4538 11.2604 19.4536 10.9473 19.4518 10.6339C19.4516 10.5211 19.4514 10.4083 19.4512 10.292C19.4506 9.93631 19.4491 9.5806 19.4475 9.22488C19.4469 8.98176 19.4464 8.73863 19.4459 8.49551C19.4446 7.90363 19.4425 7.31176 19.44 6.71988C19.3635 6.7031 19.2869 6.68632 19.208 6.66902C16.5134 6.06705 14.2418 5.2202 12.24 3.23988C12.1806 3.12108 12.1806 3.12108 12.12 2.99988C12.0408 2.99988 11.9616 2.99988 11.88 2.99988Z" fill="black"/>
<path d="M13.9201 6.72033C14.5743 7.34198 15.0648 7.89036 15.1647 8.81048C15.184 9.91004 15.0925 10.7884 14.3101 11.6249C13.8671 12.023 13.4534 12.3603 12.8401 12.3603C12.8401 13.3899 12.8401 14.4195 12.8401 15.4803C13.2361 15.4803 13.6321 15.4803 14.0401 15.4803C14.5201 15.7203 14.5201 15.7203 14.6401 15.9603C14.6958 16.6622 14.6958 16.6622 14.6401 16.9203C14.3717 17.2021 14.213 17.2748 13.8245 17.3155C13.7076 17.3113 13.5906 17.3071 13.4701 17.3028C13.3519 17.2996 13.2338 17.2963 13.112 17.293C13.0223 17.2888 12.9326 17.2846 12.8401 17.2803C12.8464 17.417 12.8464 17.417 12.8528 17.5564C12.856 17.6757 12.8593 17.7949 12.8626 17.9178C12.8689 18.0953 12.8689 18.0953 12.8753 18.2764C12.8401 18.6003 12.8401 18.6003 12.6887 18.8202C12.4392 18.9878 12.2989 19.0087 12.0001 19.0053C11.8776 19.0067 11.8776 19.0067 11.7526 19.0081C11.4453 18.9449 11.3524 18.8468 11.1601 18.6003C11.1168 18.3201 11.1168 18.3201 11.1193 17.9866C11.1193 17.8617 11.1193 17.7368 11.1193 17.6082C11.1212 17.4735 11.1231 17.3389 11.125 17.2002C11.1255 17.0622 11.126 16.9242 11.1265 16.782C11.1285 16.3406 11.133 15.8992 11.1376 15.4578C11.1394 15.1588 11.1411 14.8599 11.1425 14.5609C11.1465 13.8273 11.1525 13.0938 11.1601 12.3603C11.0662 12.3433 10.9723 12.3263 10.8756 12.3088C10.2644 12.1761 9.78546 11.7617 9.40934 11.2719C8.81965 10.3455 8.80372 9.4744 8.88012 8.40033C9.07788 7.55051 9.74132 6.95938 10.4401 6.48033C11.5405 5.93366 12.9202 5.9729 13.9201 6.72033ZM10.6801 8.64033C10.5067 9.18566 10.5073 9.60614 10.7476 10.1253C11.0758 10.4788 11.3023 10.6477 11.7601 10.8003C12.3935 10.7892 12.7576 10.6555 13.2001 10.2003C13.4186 9.83289 13.4404 9.6178 13.4326 9.18783C13.2918 8.65271 13.1375 8.4055 12.7201 8.04033C11.8686 7.76421 11.2601 7.96505 10.6801 8.64033Z" fill="black"/>
</svg>
