<svg width="20" height="20" viewBox="0 0 20 20" fill="none" xmlns="http://www.w3.org/2000/svg">
<g clip-path="url(#clip0_351_641)">
<path d="M6.11576 15.0342L4.90873 13.8272C4.5767 13.4951 4.45951 13.0147 4.60795 12.5694C4.72514 12.2217 4.88139 11.7686 5.06889 11.249H0.936073C0.600136 11.249 0.287636 11.0694 0.119667 10.7764C-0.048302 10.4834 -0.0443957 10.124 0.127479 9.83498L2.17826 6.37795C2.68607 5.52248 3.60404 4.99905 4.59623 4.99905H7.81107C7.90482 4.8428 7.99857 4.69826 8.09232 4.55764C11.2915 -0.161111 16.0572 -0.31736 18.9009 0.206077C19.354 0.288108 19.7056 0.643577 19.7915 1.0967C20.315 3.94436 20.1548 8.70608 15.44 11.9053C15.3033 11.999 15.1548 12.0928 14.9986 12.1865V15.4014C14.9986 16.3936 14.4751 17.3155 13.6197 17.8194L10.1626 19.8701C9.87357 20.042 9.5142 20.0459 9.22123 19.878C8.92826 19.71 8.74857 19.4014 8.74857 19.0615V14.874C8.19779 15.0655 7.71732 15.2217 7.35404 15.3389C6.91654 15.4795 6.43998 15.3584 6.11185 15.0342H6.11576ZM14.9986 6.56155C15.413 6.56155 15.8104 6.39693 16.1034 6.1039C16.3965 5.81087 16.5611 5.41345 16.5611 4.99905C16.5611 4.58464 16.3965 4.18722 16.1034 3.89419C15.8104 3.60117 15.413 3.43655 14.9986 3.43655C14.5842 3.43655 14.1867 3.60117 13.8937 3.89419C13.6007 4.18722 13.4361 4.58464 13.4361 4.99905C13.4361 5.41345 13.6007 5.81087 13.8937 6.1039C14.1867 6.39693 14.5842 6.56155 14.9986 6.56155Z" fill="#2563EB"/>
</g>
<defs>
<clipPath id="clip0_351_641">
<path d="M0 0H20V20H0V0Z" fill="white"/>
</clipPath>
</defs>
</svg>
