<svg width="20" height="20" viewBox="0 0 20 20" fill="none" xmlns="http://www.w3.org/2000/svg">
<g clip-path="url(#clip0_212_1993)">
<path d="M17.8026 16.8628L13.8232 12.8835C14.9077 11.5572 15.4408 9.86489 15.3125 8.15654C15.1841 6.44819 14.404 4.85452 13.1336 3.70518C11.8632 2.55584 10.1996 1.93876 8.487 1.98158C6.77436 2.0244 5.1437 2.72385 3.93231 3.93524C2.72092 5.14663 2.02147 6.77729 1.97865 8.48993C1.93583 10.2026 2.55291 11.8661 3.70225 13.1366C4.85159 14.407 6.44526 15.187 8.15361 15.3154C9.86196 15.4438 11.5543 14.9106 12.8806 13.8262L16.8599 17.8055C16.9856 17.9269 17.154 17.9941 17.3288 17.9926C17.5036 17.9911 17.6708 17.921 17.7944 17.7974C17.9181 17.6738 17.9882 17.5066 17.9897 17.3318C17.9912 17.157 17.924 16.9886 17.8026 16.8628ZM8.66457 14.0008C7.60973 14.0008 6.57859 13.688 5.70153 13.102C4.82446 12.516 4.14088 11.683 3.73721 10.7085C3.33354 9.73394 3.22793 8.66158 3.43371 7.62702C3.6395 6.59245 4.14745 5.64214 4.89333 4.89626C5.63921 4.15038 6.58952 3.64243 7.62409 3.43664C8.65865 3.23085 9.73101 3.33647 10.7055 3.74014C11.6801 4.14381 12.513 4.82739 13.0991 5.70446C13.6851 6.58152 13.9979 7.61266 13.9979 8.6675C13.9963 10.0815 13.4339 11.4371 12.4341 12.437C11.4342 13.4368 10.0786 13.9992 8.66457 14.0008Z" fill="#858D9D"/>
</g>
<defs>
<clipPath id="clip0_212_1993">
<rect width="16" height="16" fill="white" transform="translate(2 2)"/>
</clipPath>
</defs>
</svg>
