<svg width="39" height="44" viewBox="0 0 39 44" fill="none" xmlns="http://www.w3.org/2000/svg">
<path d="M34.6667 4.33377H25.61C25.1663 3.06722 24.3401 1.96985 23.2455 1.19345C22.1508 0.417046 20.842 0 19.5 0C18.158 0 16.8492 0.417046 15.7545 1.19345C14.6599 1.96985 13.8337 3.06722 13.39 4.33377H4.33333C3.18512 4.3372 2.08491 4.79485 1.27299 5.60676C0.461077 6.41868 0.00342924 7.51889 0 8.66711V39.0004C0.00342924 40.1487 0.461077 41.2489 1.27299 42.0608C2.08491 42.8727 3.18512 43.3303 4.33333 43.3338H34.6667C35.8149 43.3303 36.9151 42.8727 37.727 42.0608C38.5389 41.2489 38.9966 40.1487 39 39.0004V8.66711C38.9966 7.51889 38.5389 6.41868 37.727 5.60676C36.9151 4.79485 35.8149 4.3372 34.6667 4.33377ZM19.5 4.33377C19.9285 4.33377 20.3474 4.46085 20.7037 4.69892C21.06 4.937 21.3378 5.27539 21.5017 5.67129C21.6657 6.0672 21.7086 6.50284 21.625 6.92313C21.5414 7.34343 21.3351 7.72949 21.0321 8.0325C20.7291 8.33552 20.343 8.54187 19.9227 8.62547C19.5024 8.70908 19.0668 8.66617 18.6709 8.50218C18.2749 8.33819 17.9366 8.06048 17.6985 7.70417C17.4604 7.34787 17.3333 6.92896 17.3333 6.50044C17.335 5.92633 17.5639 5.37623 17.9698 4.97027C18.3758 4.56431 18.9259 4.33549 19.5 4.33377ZM15.1667 15.1671L21.2117 21.2208L26.6717 15.7608L23.8333 13.0004H32.5V21.6671L29.7353 18.8266L21.216 27.3524L15.1667 21.2988L9.56367 26.8974L6.5 23.8338L15.1667 15.1671ZM34.6667 36.8338H4.33333V32.5004H34.6667V36.8338Z" fill="#F9F9F9"/>
</svg>
